<svg xmlns="http://www.w3.org/2000/svg" viewBox="0 0 24 24" fill="none">
  <defs>
    <linearGradient id="shipGradient" x1="0%" y1="0%" x2="100%" y2="100%">
      <stop offset="0%" style="stop-color:#00f0ff;stop-opacity:1" />
      <stop offset="50%" style="stop-color:#00d4e0;stop-opacity:1" />
      <stop offset="100%" style="stop-color:#36e27b;stop-opacity:1" />
    </linearGradient>
  </defs>
  <!-- Ship hull - curved bottom -->
  <path d="M3 18C3 18 5 16 8 16C11 16 13 16 16 16C19 16 21 18 21 18" stroke="url(#shipGradient)" stroke-width="2" stroke-linecap="round" stroke-linejoin="round" fill="none"/>
  <!-- Ship deck -->
  <path d="M4 16L4 12L20 12L20 16" stroke="url(#shipGradient)" stroke-width="2" stroke-linecap="round" stroke-linejoin="round" fill="none"/>
  <!-- Containers -->
  <rect x="6" y="10" width="3" height="4" rx="0.5" stroke="url(#shipGradient)" stroke-width="2" fill="none"/>
  <rect x="10.5" y="10" width="3" height="4" rx="0.5" stroke="url(#shipGradient)" stroke-width="2" fill="none"/>
  <rect x="15" y="10" width="3" height="4" rx="0.5" stroke="url(#shipGradient)" stroke-width="2" fill="none"/>
  <!-- Water waves -->
  <path d="M2 20C2.5 19.5 3.5 20.5 4 20C4.5 19.5 5.5 20.5 6 20C6.5 19.5 7.5 20.5 8 20C8.5 19.5 9.5 20.5 10 20C10.5 19.5 11.5 20.5 12 20C12.5 19.5 13.5 20.5 14 20C14.5 19.5 15.5 20.5 16 20C16.5 19.5 17.5 20.5 18 20C18.5 19.5 19.5 20.5 20 20C20.5 19.5 21.5 20.5 22 20" stroke="url(#shipGradient)" stroke-width="1.5" stroke-linecap="round" fill="none" opacity="0.6"/>
</svg>






